<?xml version="1.0" standalone="no"?>
<!DOCTYPE svg PUBLIC "-//W3C//DTD SVG 20010904//EN"
 "http://www.w3.org/TR/2001/REC-SVG-20010904/DTD/svg10.dtd">
<svg version="1.0" xmlns="http://www.w3.org/2000/svg"
 width="512.000000pt" height="512.000000pt" viewBox="0 0 512.000000 512.000000"
 preserveAspectRatio="xMidYMid meet">
<metadata>
Created by potrace 1.11, written by Peter Selinger 2001-2013
</metadata>
<g transform="translate(0.000000,512.000000) scale(0.100000,-0.100000)"
fill="#000000" stroke="none">
<path d="M3197 5105 c-63 -22 -134 -75 -282 -209 -84 -76 -161 -136 -192 -151
-170 -81 -550 -108 -798 -56 -155 32 -194 52 -338 173 -223 185 -317 238 -425
238 -74 0 -96 -16 -116 -82 -8 -29 -14 -52 -13 -53 1 0 20 -9 41 -20 51 -26
77 -63 83 -116 8 -82 -58 -159 -136 -159 l-36 0 -39 -247 c-89 -568 -164 -872
-293 -1178 -372 -879 -471 -1724 -273 -2317 133 -399 414 -683 803 -813 183
-61 457 -101 632 -93 l70 3 29 54 c32 60 39 138 16 181 -22 41 -100 118 -174
172 -153 111 -183 134 -248 191 -116 101 -159 176 -212 367 -27 96 -50 210
-66 320 -15 103 -40 375 -40 434 0 45 1 48 23 42 110 -30 328 -32 432 -3 122
34 208 89 257 166 33 52 35 84 9 127 -22 36 -53 46 -311 103 -187 41 -268 74
-382 153 -55 39 -57 42 -92 144 -20 57 -36 115 -36 128 0 37 38 74 105 99 55
21 60 26 68 63 50 241 116 437 202 600 134 259 263 383 491 474 101 40 111 42
163 34 53 -8 56 -11 59 -39 7 -78 -78 -165 -163 -165 -55 0 -86 19 -111 65
-26 50 -58 55 -62 10 -7 -71 76 -140 169 -140 l57 0 6 -43 c12 -90 64 -142
144 -142 83 0 131 50 135 143 l2 43 60 0 c71 -1 118 22 153 74 30 44 27 94 -5
98 -18 3 -26 -5 -39 -38 -28 -70 -111 -91 -189 -47 -45 25 -85 92 -85 142 0
29 4 32 48 44 55 14 80 7 232 -58 109 -47 185 -97 269 -180 232 -226 407 -615
490 -1091 81 -461 70 -985 -30 -1374 -88 -343 -198 -507 -443 -660 -171 -105
-240 -159 -279 -215 -28 -40 -32 -54 -32 -111 0 -48 6 -77 23 -112 l24 -48
156 0 c407 0 758 86 1010 247 l54 34 61 -51 c81 -67 217 -134 313 -155 105
-24 291 -16 384 15 197 66 363 206 445 374 64 131 81 300 45 441 -20 78 -77
196 -126 260 -50 66 -159 94 -237 61 -41 -17 -91 -74 -107 -121 -20 -59 -7
-116 43 -200 55 -93 66 -150 43 -228 -22 -75 -88 -147 -174 -189 -59 -29 -76
-33 -152 -33 -71 0 -94 4 -140 26 -31 14 -72 40 -92 58 l-36 32 43 82 c208
391 203 954 -17 1723 -10 38 -9 47 14 95 97 205 103 518 16 764 l-21 61 116
420 c65 231 117 431 117 444 0 32 -32 85 -60 100 -26 14 -59 24 -297 89 -269
74 -270 74 -348 -205 -32 -116 -54 -181 -58 -169 -8 29 -41 197 -87 449 -22
121 -41 220 -42 220 -2 1 -25 11 -52 21 -55 22 -84 55 -95 106 -11 53 3 100
43 136 20 19 36 39 36 46 0 32 -51 118 -75 127 -32 12 -31 12 -78 -5z m-1659
-524 c9 -5 12 -31 10 -92 -3 -82 -4 -84 -28 -84 -24 0 -25 2 -28 78 -3 92 10
121 46 98z m1441 -5 c8 -9 11 -43 9 -93 -3 -76 -4 -78 -28 -78 -24 0 -25 2
-28 79 -2 44 -1 85 2 93 7 17 30 17 45 -1z m-1309 -99 c0 -80 -8 -101 -36 -95
-17 3 -19 14 -22 87 -3 89 5 108 40 90 15 -8 18 -22 18 -82z m1198 -6 c-3 -84
-3 -86 -28 -86 -24 0 -25 2 -28 80 -2 65 0 82 14 92 35 26 45 6 42 -86z
m-1284 -149 c41 -19 106 -75 106 -93 0 -5 -11 -4 -25 1 -39 15 -82 1 -116 -38
-28 -31 -31 -40 -26 -81 10 -88 97 -128 176 -80 l33 20 -6 -28 c-30 -118 -160
-206 -281 -189 -187 25 -287 243 -182 396 72 106 203 144 321 92z m1450 14
c54 -16 105 -52 136 -96 l21 -29 -38 15 c-76 32 -153 -21 -153 -106 0 -34 6
-48 34 -76 27 -27 42 -34 73 -34 38 0 75 18 101 50 11 13 12 9 6 -20 -28 -148
-179 -239 -325 -197 -93 28 -150 90 -179 195 -24 92 29 217 115 268 76 44 133
53 209 30z m923 -96 c91 -28 172 -55 180 -61 7 -6 13 -25 13 -42 0 -23 -165
-673 -174 -684 0 -1 -32 9 -71 23 -116 39 -213 26 -236 -33 -10 -23 -7 -40 13
-99 l25 -72 -81 25 c-103 32 -126 46 -126 81 0 15 52 220 115 457 113 425 124
455 163 455 7 0 88 -23 179 -50z m-833 -524 c165 -44 195 -61 166 -91 -13 -13
-35 -9 -185 31 -94 25 -176 51 -183 58 -18 17 -4 46 22 46 11 -1 93 -20 180
-44z m-1611 20 c3 -8 0 -21 -6 -29 -13 -17 -344 -107 -364 -100 -7 3 -13 16
-13 29 0 26 -1 25 215 83 125 33 161 37 168 17z m11 -109 c8 -12 7 -20 -4 -31
-24 -23 -357 -149 -375 -142 -10 3 -15 15 -13 28 2 18 34 34 183 94 99 40 184
72 189 70 5 -1 14 -10 20 -19z m1598 -46 c154 -62 173 -72 173 -93 0 -15 -7
-24 -20 -26 -25 -3 -368 132 -373 147 -7 21 7 41 27 41 11 0 98 -31 193 -69z"/>
</g>
</svg>
